<svg width="32" height="32" viewBox="0 0 32 32" fill="none" xmlns="http://www.w3.org/2000/svg">
<g clip-path="url(#clip0_1_2)">
<path d="M26 14C27.1028 14 28 14.8972 28 16C28 17.1028 27.1028 18 26 18C24.8972 18 24 17.1028 24 16C24 14.8972 24.8972 14 26 14ZM26 12C23.7909 12 22 13.7909 22 16C22 18.2091 23.7909 20 26 20C28.2091 20 30 18.2091 30 16C30 13.7909 28.2091 12 26 12Z" fill="black"/>
<circle cx="5" cy="16" r="2" stroke="black" stroke-width="2"/>
<line x1="18.7782" y1="20.1924" x2="10.2929" y2="11.7071" stroke="black" stroke-width="2"/>
<line x1="10.2929" y1="20.1924" x2="18.7782" y2="11.7071" stroke="black" stroke-width="2"/>
</g>
<defs>
<clipPath id="clip0_1_2">
<rect width="32" height="32" fill="white"/>
</clipPath>
</defs>
</svg>
